<?xml version="1.0" encoding="UTF-8"?>
<svg width="79px" height="79px" viewBox="0 0 79 79" version="1.1" xmlns="http://www.w3.org/2000/svg" xmlns:xlink="http://www.w3.org/1999/xlink">
    <!-- Generator: Sketch 51.3 (57544) - http://www.bohemiancoding.com/sketch -->
    <title>Group 10</title>
    <desc>Created with Sketch.</desc>
    <defs></defs>
    <g id="Homepage" stroke="none" stroke-width="1" fill="none" fill-rule="evenodd">
        <g id="Homepage-V6---Desktop" transform="translate(-327.000000, -3363.000000)">
            <g id="Group-10" transform="translate(327.000000, 3363.000000)">
                <circle id="Oval" fill="#FFFFFF" cx="39.5" cy="39.5" r="39.5"></circle>
                <g id="Group-11" transform="translate(23.000000, 22.000000)" stroke="#FF4733" stroke-linecap="round" stroke-linejoin="round" stroke-width="2">
                    <path d="M33.01144,28.51268 C33.01144,30.15768 31.67864,31.49048 30.03364,31.49048 L3.67864,31.49048 C2.03364,31.49048 0.69944,30.15768 0.69944,28.51268 L0.69944,10.66548 C0.69944,9.02048 2.03364,7.68768 3.67864,7.68768 L30.03364,7.68768 C31.67864,7.68768 33.01144,9.02048 33.01144,10.66548 L33.01144,28.51268 Z" id="Stroke-1"></path>
                    <path d="M10.56636,4.88642 L10.56636,4.13042 C10.56636,2.23622 12.19176,0.70042 14.19656,0.70042 L19.49836,0.70042 C21.50316,0.70042 23.12856,2.23622 23.12856,4.13042 L23.12856,4.88642" id="Stroke-3"></path>
                    <path d="M18.93206,16.12744 L33.01186,16.12744" id="Stroke-5"></path>
                    <path d="M0.7,16.12744 L14.7112,16.12744" id="Stroke-7"></path>
                    <path d="M18.93206,18.2042 C18.93206,18.5766 18.63106,18.8776 18.25866,18.8776 L15.38306,18.8776 C15.01206,18.8776 14.71106,18.5766 14.71106,18.2042 L14.71106,15.33 C14.71106,14.9576 15.01206,14.6566 15.38306,14.6566 L18.25866,14.6566 C18.63106,14.6566 18.93206,14.9576 18.93206,15.33 L18.93206,18.2042 Z" id="Stroke-9"></path>
                </g>
            </g>
        </g>
    </g>
</svg>