<?xml version="1.0" encoding="utf-8"?>
<!-- Generator: Adobe Illustrator 15.0.0, SVG Export Plug-In . SVG Version: 6.00 Build 0)  -->
<!DOCTYPE svg PUBLIC "-//W3C//DTD SVG 1.1//EN" "http://www.w3.org/Graphics/SVG/1.1/DTD/svg11.dtd">
<svg version="1.1" xmlns="http://www.w3.org/2000/svg" xmlns:xlink="http://www.w3.org/1999/xlink" x="0px" y="0px" width="72px"
	 height="72px" viewBox="0 0 72 72" enable-background="new 0 0 72 72" xml:space="preserve">
<g id="Circular_BG">
	<circle fill="#FFFFFF" cx="36" cy="36" r="36"/>
</g>
<g id="Icon" display="none">
	<g display="inline">
		<g>
			<g>
				<path fill="#F04C3A" d="M53.954,37.796c-0.538,0-0.897,0.358-0.897,0.897v11.671c0,0.538-0.358,0.896-0.897,0.896H19.841
					c-0.539,0-0.897-0.358-0.897-0.896V38.693c0-0.539-0.359-0.897-0.898-0.897s-0.897,0.358-0.897,0.897v11.671
					c0,1.525,1.167,2.692,2.693,2.692h32.318c1.526,0,2.693-1.167,2.693-2.692V38.693C54.853,38.154,54.493,37.796,53.954,37.796z"
					/>
			</g>
		</g>
		<g>
			<g>
				<path fill="#F04C3A" d="M53.057,25.228H18.943c-1.526,0-2.693,1.167-2.693,2.693v5.745c0,1.258,0.897,2.333,2.065,2.603
					l14.094,3.143v2.874c0,0.538,0.359,0.896,0.897,0.896h5.387c0.538,0,0.897-0.358,0.897-0.896v-2.874l14.095-3.143
					c1.167-0.27,2.064-1.345,2.064-2.603V27.92C55.75,26.395,54.583,25.228,53.057,25.228z M37.796,41.386h-3.591v-3.59h3.591
					V41.386z M53.954,33.666c0,0.449-0.269,0.809-0.718,0.898l-13.646,3.052v-0.719c0-0.539-0.359-0.898-0.897-0.898h-5.387
					c-0.539,0-0.897,0.36-0.897,0.898v0.719l-13.646-3.052c-0.449-0.09-0.718-0.449-0.718-0.898V27.92
					c0-0.539,0.359-0.897,0.898-0.897h34.113c0.539,0,0.897,0.359,0.897,0.897V33.666z"/>
			</g>
		</g>
		<g>
			<g>
				<path fill="#F04C3A" d="M40.489,18.943h-8.978c-1.526,0-2.693,1.167-2.693,2.693v0.897c0,0.539,0.359,0.898,0.897,0.898
					s0.898-0.359,0.898-0.898v-0.897c0-0.539,0.359-0.898,0.897-0.898h8.978c0.538,0,0.896,0.359,0.896,0.898v0.897
					c0,0.539,0.359,0.898,0.898,0.898s0.897-0.359,0.897-0.898v-0.897C43.182,20.11,42.015,18.943,40.489,18.943z"/>
			</g>
		</g>
	</g>
</g>
<g id="Layer_3">
	<g>
		<g>
			<g>
				<path fill="#F04C3A" d="M48.872,30.497c-0.357-0.447-0.357-1.162,0-1.698c0.536-0.805,0.626-1.788,0.446-2.682
					c-0.268-0.894-0.894-1.699-1.698-2.146c-0.536-0.268-0.894-0.894-0.894-1.52c0-0.983-0.357-1.877-0.983-2.592
					c-0.715-0.537-1.608-0.894-2.592-0.894c-0.626,0-1.162-0.268-1.52-0.894c-0.357-0.804-1.163-1.43-2.057-1.698
					s-1.877-0.089-2.682,0.447c-0.536,0.358-1.251,0.358-1.788,0c-0.804-0.536-1.788-0.625-2.682-0.447
					c-0.894,0.268-1.698,0.894-2.145,1.698c-0.268,0.537-0.894,0.894-1.52,0.894c-0.983-0.089-1.877,0.357-2.592,0.983
					c-0.536,0.715-0.894,1.609-0.894,2.592c0,0.625-0.268,1.162-0.894,1.52c-0.804,0.358-1.43,1.162-1.698,2.056
					s-0.089,1.877,0.447,2.682c0.358,0.537,0.358,1.251,0,1.788c-0.536,0.804-0.625,1.788-0.447,2.682
					c0.268,0.894,0.894,1.699,1.698,2.145c0.537,0.269,0.894,0.894,0.894,1.52c0,0.983,0.358,1.877,0.983,2.592
					c0.715,0.715,1.609,1.073,2.592,0.983v14.303c0,0.357,0.179,0.626,0.447,0.805c0.269,0.179,0.626,0.179,0.894,0L36,52.309
					l5.811,3.308c0.179,0,0.268,0,0.447,0c0.178,0,0.268,0,0.446-0.09c0.269-0.179,0.447-0.446,0.447-0.805V43.995
					c0-0.536-0.358-0.895-0.894-0.895c-0.537,0-0.895,0.358-0.895,0.895v9.207l-4.47-2.592v-3.934c0-0.537-0.357-0.894-0.894-0.894
					c-0.536,0-0.894,0.356-0.894,0.894v3.934l-4.469,2.592V41.76c0.447,0.626,1.073,0.983,1.788,1.252
					c0.894,0.268,1.877,0.09,2.682-0.446c0.537-0.358,1.162-0.358,1.698,0c0.537,0.356,1.163,0.536,1.789,0.536
					c0.268,0,0.625,0,0.894-0.09c0.894-0.269,1.698-0.895,2.146-1.698c0.268-0.537,0.894-0.895,1.52-0.895
					c0.983,0.09,1.877-0.357,2.592-0.982c0.715-0.716,1.073-1.609,0.983-2.593c0-0.625,0.269-1.162,0.894-1.52
					c0.805-0.447,1.431-1.252,1.698-2.146C49.587,32.285,49.408,31.301,48.872,30.497z M47.531,32.732
					c-0.089,0.446-0.446,0.804-0.805,0.982c-1.162,0.626-1.877,1.877-1.787,3.129c0,0.446-0.18,0.894-0.448,1.162
					c-0.356,0.357-0.714,0.446-1.161,0.446c-1.341-0.089-2.593,0.626-3.129,1.788c-0.179,0.447-0.536,0.716-0.983,0.805
					c-0.447,0.09-0.894,0.09-1.251-0.179c-0.537-0.357-1.163-0.536-1.788-0.536s-1.251,0.179-1.788,0.536
					c-0.357,0.269-0.805,0.357-1.251,0.179c-0.447-0.089-0.805-0.447-0.983-0.805c-0.625-1.162-1.788-1.877-3.128-1.788
					c-0.447,0-0.894-0.179-1.162-0.446c-0.269-0.269-0.805-0.626-0.805-1.073c0.089-1.341-0.625-2.592-1.788-3.128
					c-0.447-0.179-0.715-0.537-0.804-0.983c-0.179-0.447-0.09-0.894,0.179-1.34c0.715-1.073,0.715-2.503,0-3.666
					c-0.269-0.358-0.358-0.805-0.179-1.251c0.089-0.447,0.447-0.805,0.804-0.983c1.162-0.625,1.877-1.877,1.788-3.129
					c0-0.447,0.179-0.894,0.447-1.162c0.358-0.358,0.805-0.537,1.251-0.537c1.341,0.089,2.592-0.625,3.129-1.788
					c0.179-0.447,0.536-0.715,0.983-0.805c0.447-0.179,0.894-0.089,1.34,0.179c1.073,0.715,2.503,0.715,3.665,0
					c0.358-0.268,0.805-0.357,1.252-0.179c0.446,0.089,0.804,0.357,0.983,0.805c0.625,1.162,1.877,1.877,3.128,1.788
					c0.447,0,0.895,0.179,1.162,0.447c0.357,0.358,0.537,0.805,0.537,1.251c-0.09,1.341,0.625,2.592,1.787,3.129
					c0.447,0.179,0.716,0.537,0.805,0.983c0.09,0.447,0.09,0.894-0.179,1.251c-0.715,1.162-0.715,2.592,0,3.666
					C47.621,31.837,47.71,32.285,47.531,32.732z"/>
			</g>
		</g>
		<g>
			<g>
				<path fill="#F04C3A" d="M39.575,28.798c0-0.089-0.089-0.179-0.179-0.179l-2.234-0.358l-0.983-2.056
					c0-0.089-0.089-0.089-0.179-0.089s-0.178,0.089-0.178,0.089l-0.983,2.056l-2.235,0.358c-0.089,0-0.178,0.089-0.178,0.179
					s0,0.179,0.089,0.268l1.609,1.609L33.765,33c0,0.089,0,0.179,0.09,0.269c0.089,0.089,0.179,0.089,0.268,0l1.967-1.073
					l1.966,1.073h0.09c0.09,0,0.09,0,0.09-0.09c0.089-0.089,0.089-0.179,0.089-0.268l-0.357-2.325l1.608-1.609
					C39.575,28.977,39.575,28.888,39.575,28.798z"/>
			</g>
		</g>
		<g>
			<g>
				<path fill="#F04C3A" d="M36,20.753c-4.917,0-8.939,4.022-8.939,8.939c0,0.536,0.357,0.894,0.894,0.894
					c0.537,0,0.894-0.357,0.894-0.894c0-3.933,3.218-7.151,7.151-7.151c3.933,0,7.151,3.218,7.151,7.151S39.933,36.844,36,36.844
					c-2.771,0-5.185-1.52-6.436-3.933c-0.179-0.447-0.715-0.626-1.163-0.447c-0.447,0.179-0.625,0.715-0.447,1.162
					c1.52,3.039,4.559,5.006,8.045,5.006c4.917,0,8.939-4.023,8.939-8.939S40.917,20.753,36,20.753z"/>
			</g>
		</g>
	</g>
</g>
</svg>
