<?xml version="1.0" encoding="utf-8"?>
<!-- Generator: Adobe Illustrator 23.0.1, SVG Export Plug-In . SVG Version: 6.00 Build 0)  -->
<svg version="1.1" xmlns="http://www.w3.org/2000/svg" xmlns:xlink="http://www.w3.org/1999/xlink" x="0px" y="0px"
	 viewBox="0 0 72 72" style="enable-background:new 0 0 72 72;" xml:space="preserve">
<style type="text/css">
	.st0{fill:#FFFFFF;}
	.st1{display:none;}
	.st2{display:inline;}
	.st3{fill:#F04C3A;}
</style>
<g id="Layer_1">
	<g id="Circular_BG">
		<circle class="st0" cx="36" cy="36" r="36"/>
	</g>
	<g id="Icon" class="st1">
		<g class="st2">
			<g>
				<g>
					<path class="st3" d="M54,37.8c-0.5,0-0.9,0.4-0.9,0.9v11.7c0,0.5-0.4,0.9-0.9,0.9H19.8c-0.5,0-0.9-0.4-0.9-0.9V38.7
						c0-0.5-0.4-0.9-0.9-0.9s-0.9,0.4-0.9,0.9v11.7c0,1.5,1.2,2.7,2.7,2.7h32.3c1.5,0,2.7-1.2,2.7-2.7V38.7
						C54.9,38.2,54.5,37.8,54,37.8z"/>
				</g>
			</g>
			<g>
				<g>
					<path class="st3" d="M53.1,25.2H18.9c-1.5,0-2.7,1.2-2.7,2.7v5.7c0,1.3,0.9,2.3,2.1,2.6l14.1,3.1v2.9c0,0.5,0.4,0.9,0.9,0.9
						h5.4c0.5,0,0.9-0.4,0.9-0.9v-2.9l14.1-3.1c1.2-0.3,2.1-1.3,2.1-2.6v-5.7C55.8,26.4,54.6,25.2,53.1,25.2z M37.8,41.4h-3.6v-3.6
						h3.6V41.4z M54,33.7c0,0.4-0.3,0.8-0.7,0.9l-13.6,3.1v-0.7c0-0.5-0.4-0.9-0.9-0.9h-5.4c-0.5,0-0.9,0.4-0.9,0.9v0.7l-13.6-3.1
						c-0.4-0.1-0.7-0.4-0.7-0.9v-5.7c0-0.5,0.4-0.9,0.9-0.9h34.1c0.5,0,0.9,0.4,0.9,0.9L54,33.7L54,33.7z"/>
				</g>
			</g>
			<g>
				<g>
					<path class="st3" d="M40.5,18.9h-9c-1.5,0-2.7,1.2-2.7,2.7v0.9c0,0.5,0.4,0.9,0.9,0.9s0.9-0.4,0.9-0.9v-0.9
						c0-0.5,0.4-0.9,0.9-0.9h9c0.5,0,0.9,0.4,0.9,0.9v0.9c0,0.5,0.4,0.9,0.9,0.9s0.9-0.4,0.9-0.9v-0.9C43.2,20.1,42,18.9,40.5,18.9z
						"/>
				</g>
			</g>
		</g>
	</g>
</g>
<g id="Layer_2" class="st1">
	<g id="Layer_3" class="st2">
		<g>
			<g>
				<g>
					<path class="st3" d="M48.9,30.5c-0.4-0.4-0.4-1.2,0-1.7c0.5-0.8,0.6-1.8,0.4-2.7c-0.3-0.9-0.9-1.7-1.7-2.1
						c-0.5-0.3-0.9-0.9-0.9-1.5c0-1-0.4-1.9-1-2.6C45,19.3,44.1,19,43.2,19c-0.6,0-1.2-0.3-1.5-0.9c-0.4-0.8-1.2-1.4-2.1-1.7
						s-1.9-0.1-2.7,0.4c-0.5,0.4-1.3,0.4-1.8,0c-0.8-0.5-1.8-0.6-2.7-0.4c-0.9,0.3-1.7,0.9-2.1,1.7C30,18.6,29.4,19,28.8,19
						c-1-0.1-1.9,0.4-2.6,1c-0.5,0.7-0.9,1.6-0.9,2.6c0,0.6-0.3,1.2-0.9,1.5c-0.8,0.4-1.4,1.2-1.7,2.1s-0.1,1.9,0.4,2.7
						c0.4,0.5,0.4,1.3,0,1.8c-0.5,0.8-0.6,1.8-0.4,2.7c0.3,0.9,0.9,1.7,1.7,2.1c0.5,0.3,0.9,0.9,0.9,1.5c0,1,0.4,1.9,1,2.6
						c0.7,0.7,1.6,1.1,2.6,1v14.3c0,0.4,0.2,0.6,0.4,0.8c0.3,0.2,0.6,0.2,0.9,0l5.8-3.3l5.8,3.3c0.2,0,0.3,0,0.4,0
						c0.2,0,0.3,0,0.4-0.1c0.3-0.2,0.4-0.4,0.4-0.8V44c0-0.5-0.4-0.9-0.9-0.9c-0.5,0-0.9,0.4-0.9,0.9v9.2l-4.5-2.6v-3.9
						c0-0.5-0.4-0.9-0.9-0.9c-0.5,0-0.9,0.4-0.9,0.9v3.9l-4.5,2.6V41.8c0.4,0.6,1.1,1,1.8,1.3c0.9,0.3,1.9,0.1,2.7-0.4
						c0.5-0.4,1.2-0.4,1.7,0c0.5,0.4,1.2,0.5,1.8,0.5c0.3,0,0.6,0,0.9-0.1c0.9-0.3,1.7-0.9,2.1-1.7c0.3-0.5,0.9-0.9,1.5-0.9
						c1,0.1,1.9-0.4,2.6-1c0.7-0.7,1.1-1.6,1-2.6c0-0.6,0.3-1.2,0.9-1.5c0.8-0.4,1.4-1.3,1.7-2.1C49.6,32.3,49.4,31.3,48.9,30.5z
						 M47.5,32.7c-0.1,0.4-0.4,0.8-0.8,1c-1.2,0.6-1.9,1.9-1.8,3.1c0,0.4-0.2,0.9-0.4,1.2c-0.4,0.4-0.7,0.4-1.2,0.4
						c-1.3-0.1-2.6,0.6-3.1,1.8c-0.2,0.4-0.5,0.7-1,0.8c-0.4,0.1-0.9,0.1-1.3-0.2c-0.5-0.4-1.2-0.5-1.8-0.5s-1.3,0.2-1.8,0.5
						c-0.4,0.3-0.8,0.4-1.3,0.2c-0.4-0.1-0.8-0.4-1-0.8c-0.6-1.2-1.8-1.9-3.1-1.8c-0.4,0-0.9-0.2-1.2-0.4c-0.3-0.3-0.8-0.6-0.8-1.1
						c0.1-1.3-0.6-2.6-1.8-3.1c-0.4-0.2-0.7-0.5-0.8-1c-0.2-0.4-0.1-0.9,0.2-1.3c0.7-1.1,0.7-2.5,0-3.7c-0.3-0.4-0.4-0.8-0.2-1.3
						c0.1-0.4,0.4-0.8,0.8-1c1.2-0.6,1.9-1.9,1.8-3.1c0-0.4,0.2-0.9,0.4-1.2c0.4-0.4,0.8-0.5,1.3-0.5c1.3,0.1,2.6-0.6,3.1-1.8
						c0.2-0.4,0.5-0.7,1-0.8c0.4-0.2,0.9-0.1,1.3,0.2c1.1,0.7,2.5,0.7,3.7,0c0.4-0.3,0.8-0.4,1.3-0.2c0.4,0.1,0.8,0.4,1,0.8
						c0.6,1.2,1.9,1.9,3.1,1.8c0.4,0,0.9,0.2,1.2,0.4c0.4,0.4,0.5,0.8,0.5,1.3c-0.1,1.3,0.6,2.6,1.8,3.1c0.4,0.2,0.7,0.5,0.8,1
						c0.1,0.4,0.1,0.9-0.2,1.3c-0.7,1.2-0.7,2.6,0,3.7C47.6,31.8,47.7,32.3,47.5,32.7z"/>
				</g>
			</g>
			<g>
				<g>
					<path class="st3" d="M39.6,28.8c0-0.1-0.1-0.2-0.2-0.2l-2.2-0.4l-1-2.1c0-0.1-0.1-0.1-0.2-0.1s-0.2,0.1-0.2,0.1l-1,2.1
						l-2.2,0.4c-0.1,0-0.2,0.1-0.2,0.2s0,0.2,0.1,0.3l1.6,1.6L33.8,33c0,0.1,0,0.2,0.1,0.3c0.1,0.1,0.2,0.1,0.3,0l2-1.1l2,1.1h0.1
						c0.1,0,0.1,0,0.1-0.1c0.1-0.1,0.1-0.2,0.1-0.3L38,30.6l1.6-1.6C39.6,29,39.6,28.9,39.6,28.8z"/>
				</g>
			</g>
			<g>
				<g>
					<path class="st3" d="M36,20.8c-4.9,0-8.9,4-8.9,8.9c0,0.5,0.4,0.9,0.9,0.9c0.5,0,0.9-0.4,0.9-0.9c0-3.9,3.2-7.2,7.2-7.2
						s7.2,3.2,7.2,7.2s-3.2,7.2-7.2,7.2c-2.8,0-5.2-1.5-6.4-3.9c-0.2-0.4-0.7-0.6-1.2-0.4c-0.4,0.2-0.6,0.7-0.4,1.2c1.5,3,4.6,5,8,5
						c4.9,0,8.9-4,8.9-8.9S40.9,20.8,36,20.8z"/>
				</g>
			</g>
		</g>
	</g>
</g>
<g id="Layer_3_1_">
	<g>
		<g id="XMLID_323_">
			<g id="XMLID_1291_">
				<path id="XMLID_1351_" class="st3" d="M54.8,15.1H22.7c-0.4,0-0.8,0.4-0.8,0.8v3.5h-2.7c-0.4,0-0.8,0.4-0.8,0.8v4.3h-2.7
					c-0.4,0-0.8,0.4-0.8,0.8v26.2c0,2.4,1.9,4.3,4.3,4.3h32.1c2.4,0,4.3-1.9,4.3-4.3V15.9C55.6,15.4,55.2,15.1,54.8,15.1z M54,51.5
					c0,1.5-1.2,2.7-2.7,2.7H22.5c0.6-0.7,1-1.7,1-2.7V40.7c0-0.4-0.4-0.8-0.8-0.8c-0.4,0-0.8,0.4-0.8,0.8v10.7
					c0,1.5-1.2,2.7-2.7,2.7s-2.7-1.2-2.7-2.7V26.1h1.9v24.6c0,0.4,0.4,0.8,0.8,0.8s0.8-0.4,0.8-0.8V21h1.9v12.6
					c0,0.4,0.4,0.8,0.8,0.8c0.4,0,0.8-0.4,0.8-0.8V16.7H54V51.5z"/>
				<path id="XMLID_1376_" class="st3" d="M26.5,27.6H51c0.4,0,0.8-0.4,0.8-0.8v-5.7c0-0.4-0.4-0.8-0.8-0.8H26.5
					c-0.4,0-0.8,0.4-0.8,0.8v5.7C25.7,27.3,26.1,27.6,26.5,27.6z M27.3,21.9h22.9v4.1H27.3V21.9z"/>
				<path id="XMLID_1459_" class="st3" d="M26.5,46.7h12.2c0.4,0,0.8-0.4,0.8-0.8V30.7c0-0.4-0.4-0.8-0.8-0.8H26.5
					c-0.4,0-0.8,0.4-0.8,0.8v15.2C25.7,46.3,26.1,46.7,26.5,46.7z M27.3,31.5h10.6v13.7H27.3V31.5z"/>
				<path id="XMLID_1460_" class="st3" d="M51,29.9h-8.4c-0.4,0-0.8,0.4-0.8,0.8c0,0.4,0.4,0.8,0.8,0.8H51c0.4,0,0.8-0.4,0.8-0.8
					C51.8,30.2,51.4,29.9,51,29.9z"/>
				<path id="XMLID_1476_" class="st3" d="M51,33.7h-8.4c-0.4,0-0.8,0.4-0.8,0.8c0,0.4,0.4,0.8,0.8,0.8H51c0.4,0,0.8-0.4,0.8-0.8
					C51.8,34,51.4,33.7,51,33.7z"/>
				<path id="XMLID_1533_" class="st3" d="M51,37.5h-8.4c-0.4,0-0.8,0.4-0.8,0.8c0,0.4,0.4,0.8,0.8,0.8H51c0.4,0,0.8-0.4,0.8-0.8
					C51.8,37.8,51.4,37.5,51,37.5z"/>
				<path id="XMLID_1535_" class="st3" d="M51,41.3h-8.4c-0.4,0-0.8,0.4-0.8,0.8s0.4,0.8,0.8,0.8H51c0.4,0,0.8-0.4,0.8-0.8
					S51.4,41.3,51,41.3z"/>
				<path id="XMLID_1545_" class="st3" d="M51,45.1h-8.4c-0.4,0-0.8,0.4-0.8,0.8c0,0.4,0.4,0.8,0.8,0.8H51c0.4,0,0.8-0.4,0.8-0.8
					C51.8,45.5,51.4,45.1,51,45.1z"/>
				<path id="XMLID_1550_" class="st3" d="M26.5,50.5H51c0.4,0,0.8-0.4,0.8-0.8c0-0.4-0.4-0.8-0.8-0.8H26.5c-0.4,0-0.8,0.4-0.8,0.8
					C25.7,50.2,26.1,50.5,26.5,50.5z"/>
				<path id="XMLID_1572_" class="st3" d="M22.7,36.4c-0.2,0-0.4,0.1-0.6,0.2c-0.1,0.1-0.2,0.4-0.2,0.6c0,0.2,0.1,0.4,0.2,0.6
					c0.1,0.1,0.4,0.2,0.6,0.2c0.2,0,0.4-0.1,0.6-0.2c0.1-0.1,0.2-0.4,0.2-0.6s-0.1-0.4-0.2-0.6C23.1,36.5,22.9,36.4,22.7,36.4z"/>
			</g>
		</g>
	</g>
</g>
</svg>
