<?xml version="1.0" encoding="utf-8"?>
<!-- Generator: Adobe Illustrator 15.0.0, SVG Export Plug-In . SVG Version: 6.00 Build 0)  -->
<!DOCTYPE svg PUBLIC "-//W3C//DTD SVG 1.1//EN" "http://www.w3.org/Graphics/SVG/1.1/DTD/svg11.dtd">
<svg version="1.1" xmlns="http://www.w3.org/2000/svg" xmlns:xlink="http://www.w3.org/1999/xlink" x="0px" y="0px" width="72px"
	 height="72px" viewBox="0 0 72 72" enable-background="new 0 0 72 72" xml:space="preserve">
<g id="Circular_BG">
	<circle fill="#FFFFFF" cx="36" cy="36" r="36"/>
</g>
<g id="Icon">
	<g>
		<g>
			<g>
				<path fill="#F04C3A" d="M53.954,37.796c-0.538,0-0.897,0.358-0.897,0.897v11.671c0,0.538-0.358,0.896-0.897,0.896H19.841
					c-0.539,0-0.897-0.358-0.897-0.896V38.693c0-0.539-0.359-0.897-0.898-0.897s-0.897,0.358-0.897,0.897v11.671
					c0,1.525,1.167,2.692,2.693,2.692h32.318c1.526,0,2.693-1.167,2.693-2.692V38.693C54.853,38.154,54.493,37.796,53.954,37.796z"
					/>
			</g>
		</g>
		<g>
			<g>
				<path fill="#F04C3A" d="M53.057,25.228H18.943c-1.526,0-2.693,1.167-2.693,2.693v5.745c0,1.258,0.897,2.333,2.065,2.603
					l14.094,3.143v2.874c0,0.538,0.359,0.896,0.897,0.896h5.387c0.538,0,0.897-0.358,0.897-0.896v-2.874l14.095-3.143
					c1.167-0.27,2.064-1.345,2.064-2.603V27.92C55.75,26.395,54.583,25.228,53.057,25.228z M37.796,41.386h-3.591v-3.59h3.591
					V41.386z M53.954,33.666c0,0.449-0.269,0.809-0.718,0.898l-13.646,3.052v-0.719c0-0.539-0.359-0.898-0.897-0.898h-5.387
					c-0.539,0-0.897,0.36-0.897,0.898v0.719l-13.646-3.052c-0.449-0.09-0.718-0.449-0.718-0.898V27.92
					c0-0.539,0.359-0.897,0.898-0.897h34.113c0.539,0,0.897,0.359,0.897,0.897V33.666z"/>
			</g>
		</g>
		<g>
			<g>
				<path fill="#F04C3A" d="M40.489,18.943h-8.978c-1.526,0-2.693,1.167-2.693,2.693v0.897c0,0.539,0.359,0.898,0.897,0.898
					s0.898-0.359,0.898-0.898v-0.897c0-0.539,0.359-0.898,0.897-0.898h8.978c0.538,0,0.896,0.359,0.896,0.898v0.897
					c0,0.539,0.359,0.898,0.898,0.898s0.897-0.359,0.897-0.898v-0.897C43.182,20.11,42.015,18.943,40.489,18.943z"/>
			</g>
		</g>
	</g>
</g>
</svg>
