<?xml version="1.0" encoding="utf-8"?>
<!-- Generator: Adobe Illustrator 15.0.0, SVG Export Plug-In . SVG Version: 6.00 Build 0)  -->
<!DOCTYPE svg PUBLIC "-//W3C//DTD SVG 1.1//EN" "http://www.w3.org/Graphics/SVG/1.1/DTD/svg11.dtd">
<svg version="1.1" xmlns="http://www.w3.org/2000/svg" xmlns:xlink="http://www.w3.org/1999/xlink" x="0px" y="0px" width="72px"
	 height="72px" viewBox="0 0 72 72" enable-background="new 0 0 72 72" xml:space="preserve">
<g id="Circular_BG">
	<circle fill="#FFFFFF" cx="36" cy="36" r="36"/>
</g>
<g id="Icon" display="none">
	<g display="inline">
		<g>
			<g>
				<path fill="#F04C3A" d="M53.954,37.796c-0.538,0-0.897,0.358-0.897,0.897v11.671c0,0.538-0.358,0.896-0.897,0.896H19.841
					c-0.539,0-0.897-0.358-0.897-0.896V38.693c0-0.539-0.359-0.897-0.898-0.897s-0.897,0.358-0.897,0.897v11.671
					c0,1.525,1.167,2.692,2.693,2.692h32.318c1.526,0,2.693-1.167,2.693-2.692V38.693C54.853,38.154,54.493,37.796,53.954,37.796z"
					/>
			</g>
		</g>
		<g>
			<g>
				<path fill="#F04C3A" d="M53.057,25.228H18.943c-1.526,0-2.693,1.167-2.693,2.693v5.745c0,1.258,0.897,2.333,2.065,2.603
					l14.094,3.143v2.874c0,0.538,0.359,0.896,0.897,0.896h5.387c0.538,0,0.897-0.358,0.897-0.896v-2.874l14.095-3.143
					c1.167-0.27,2.064-1.345,2.064-2.603V27.92C55.75,26.395,54.583,25.228,53.057,25.228z M37.796,41.386h-3.591v-3.59h3.591
					V41.386z M53.954,33.666c0,0.449-0.269,0.809-0.718,0.898l-13.646,3.052v-0.719c0-0.539-0.359-0.898-0.897-0.898h-5.387
					c-0.539,0-0.897,0.36-0.897,0.898v0.719l-13.646-3.052c-0.449-0.09-0.718-0.449-0.718-0.898V27.92
					c0-0.539,0.359-0.897,0.898-0.897h34.113c0.539,0,0.897,0.359,0.897,0.897V33.666z"/>
			</g>
		</g>
		<g>
			<g>
				<path fill="#F04C3A" d="M40.489,18.943h-8.978c-1.526,0-2.693,1.167-2.693,2.693v0.897c0,0.539,0.359,0.898,0.897,0.898
					s0.898-0.359,0.898-0.898v-0.897c0-0.539,0.359-0.898,0.897-0.898h8.978c0.538,0,0.896,0.359,0.896,0.898v0.897
					c0,0.539,0.359,0.898,0.898,0.898s0.897-0.359,0.897-0.898v-0.897C43.182,20.11,42.015,18.943,40.489,18.943z"/>
			</g>
		</g>
	</g>
</g>
<g id="Layer_3" display="none">
	<g display="inline">
		<g>
			<g>
				<path fill="#F04C3A" d="M48.872,30.497c-0.357-0.447-0.357-1.162,0-1.698c0.536-0.805,0.626-1.788,0.446-2.682
					c-0.268-0.894-0.894-1.699-1.698-2.146c-0.536-0.268-0.894-0.894-0.894-1.52c0-0.983-0.357-1.877-0.983-2.592
					c-0.715-0.537-1.608-0.894-2.592-0.894c-0.626,0-1.162-0.268-1.52-0.894c-0.357-0.804-1.163-1.43-2.057-1.698
					s-1.877-0.089-2.682,0.447c-0.536,0.358-1.251,0.358-1.788,0c-0.804-0.536-1.788-0.625-2.682-0.447
					c-0.894,0.268-1.698,0.894-2.145,1.698c-0.268,0.537-0.894,0.894-1.52,0.894c-0.983-0.089-1.877,0.357-2.592,0.983
					c-0.536,0.715-0.894,1.609-0.894,2.592c0,0.625-0.268,1.162-0.894,1.52c-0.804,0.358-1.43,1.162-1.698,2.056
					s-0.089,1.877,0.447,2.682c0.358,0.537,0.358,1.251,0,1.788c-0.536,0.804-0.625,1.788-0.447,2.682
					c0.268,0.894,0.894,1.699,1.698,2.145c0.537,0.269,0.894,0.894,0.894,1.52c0,0.983,0.358,1.877,0.983,2.592
					c0.715,0.715,1.609,1.073,2.592,0.983v14.303c0,0.357,0.179,0.626,0.447,0.805c0.269,0.179,0.626,0.179,0.894,0L36,52.309
					l5.811,3.308c0.179,0,0.268,0,0.447,0c0.178,0,0.268,0,0.446-0.09c0.269-0.179,0.447-0.446,0.447-0.805V43.995
					c0-0.536-0.358-0.895-0.894-0.895c-0.537,0-0.895,0.358-0.895,0.895v9.207l-4.47-2.592v-3.934c0-0.537-0.357-0.894-0.894-0.894
					c-0.536,0-0.894,0.356-0.894,0.894v3.934l-4.469,2.592V41.76c0.447,0.626,1.073,0.983,1.788,1.252
					c0.894,0.268,1.877,0.09,2.682-0.446c0.537-0.358,1.162-0.358,1.698,0c0.537,0.356,1.163,0.536,1.789,0.536
					c0.268,0,0.625,0,0.894-0.09c0.894-0.269,1.698-0.895,2.146-1.698c0.268-0.537,0.894-0.895,1.52-0.895
					c0.983,0.09,1.877-0.357,2.592-0.982c0.715-0.716,1.073-1.609,0.983-2.593c0-0.625,0.269-1.162,0.894-1.52
					c0.805-0.447,1.431-1.252,1.698-2.146C49.587,32.285,49.408,31.301,48.872,30.497z M47.531,32.732
					c-0.089,0.446-0.446,0.804-0.805,0.982c-1.162,0.626-1.877,1.877-1.787,3.129c0,0.446-0.18,0.894-0.448,1.162
					c-0.356,0.357-0.714,0.446-1.161,0.446c-1.341-0.089-2.593,0.626-3.129,1.788c-0.179,0.447-0.536,0.716-0.983,0.805
					c-0.447,0.09-0.894,0.09-1.251-0.179c-0.537-0.357-1.163-0.536-1.788-0.536s-1.251,0.179-1.788,0.536
					c-0.357,0.269-0.805,0.357-1.251,0.179c-0.447-0.089-0.805-0.447-0.983-0.805c-0.625-1.162-1.788-1.877-3.128-1.788
					c-0.447,0-0.894-0.179-1.162-0.446c-0.269-0.269-0.805-0.626-0.805-1.073c0.089-1.341-0.625-2.592-1.788-3.128
					c-0.447-0.179-0.715-0.537-0.804-0.983c-0.179-0.447-0.09-0.894,0.179-1.34c0.715-1.073,0.715-2.503,0-3.666
					c-0.269-0.358-0.358-0.805-0.179-1.251c0.089-0.447,0.447-0.805,0.804-0.983c1.162-0.625,1.877-1.877,1.788-3.129
					c0-0.447,0.179-0.894,0.447-1.162c0.358-0.358,0.805-0.537,1.251-0.537c1.341,0.089,2.592-0.625,3.129-1.788
					c0.179-0.447,0.536-0.715,0.983-0.805c0.447-0.179,0.894-0.089,1.34,0.179c1.073,0.715,2.503,0.715,3.665,0
					c0.358-0.268,0.805-0.357,1.252-0.179c0.446,0.089,0.804,0.357,0.983,0.805c0.625,1.162,1.877,1.877,3.128,1.788
					c0.447,0,0.895,0.179,1.162,0.447c0.357,0.358,0.537,0.805,0.537,1.251c-0.09,1.341,0.625,2.592,1.787,3.129
					c0.447,0.179,0.716,0.537,0.805,0.983c0.09,0.447,0.09,0.894-0.179,1.251c-0.715,1.162-0.715,2.592,0,3.666
					C47.621,31.837,47.71,32.285,47.531,32.732z"/>
			</g>
		</g>
		<g>
			<g>
				<path fill="#F04C3A" d="M39.575,28.798c0-0.089-0.089-0.179-0.179-0.179l-2.234-0.358l-0.983-2.056
					c0-0.089-0.089-0.089-0.179-0.089s-0.178,0.089-0.178,0.089l-0.983,2.056l-2.235,0.358c-0.089,0-0.178,0.089-0.178,0.179
					s0,0.179,0.089,0.268l1.609,1.609L33.765,33c0,0.089,0,0.179,0.09,0.269c0.089,0.089,0.179,0.089,0.268,0l1.967-1.073
					l1.966,1.073h0.09c0.09,0,0.09,0,0.09-0.09c0.089-0.089,0.089-0.179,0.089-0.268l-0.357-2.325l1.608-1.609
					C39.575,28.977,39.575,28.888,39.575,28.798z"/>
			</g>
		</g>
		<g>
			<g>
				<path fill="#F04C3A" d="M36,20.753c-4.917,0-8.939,4.022-8.939,8.939c0,0.536,0.357,0.894,0.894,0.894
					c0.537,0,0.894-0.357,0.894-0.894c0-3.933,3.218-7.151,7.151-7.151c3.933,0,7.151,3.218,7.151,7.151S39.933,36.844,36,36.844
					c-2.771,0-5.185-1.52-6.436-3.933c-0.179-0.447-0.715-0.626-1.163-0.447c-0.447,0.179-0.625,0.715-0.447,1.162
					c1.52,3.039,4.559,5.006,8.045,5.006c4.917,0,8.939-4.023,8.939-8.939S40.917,20.753,36,20.753z"/>
			</g>
		</g>
	</g>
</g>
<g id="Layer_4">
	<g>
		<g>
			<g>
				<path fill="#F04C3A" d="M30.126,41.381c-2.962,0-5.385,2.424-5.385,5.386c0,1.615,0.718,3.052,1.795,4.039v4.039
					c0,0.27,0.18,0.539,0.359,0.718c0.269,0.18,0.538,0.27,0.808,0.09l2.424-0.808l2.423,0.808c0.09,0,0.18,0.09,0.27,0.09
					c0.18,0,0.358-0.09,0.539-0.18c0.269-0.179,0.358-0.448,0.358-0.718v-4.039c1.077-0.987,1.795-2.424,1.795-4.039
					C35.512,43.805,33.089,41.381,30.126,41.381z M31.922,53.588l-1.526-0.538c-0.18-0.091-0.358-0.091-0.538,0l-1.526,0.538v-1.795
					c0.539,0.18,1.167,0.359,1.795,0.359c0.629,0,1.257-0.091,1.796-0.359V53.588z M30.126,50.357c-1.974,0-3.59-1.616-3.59-3.59
					c0-1.976,1.616-3.592,3.59-3.592c1.976,0,3.591,1.616,3.591,3.592C33.717,48.741,32.102,50.357,30.126,50.357z"/>
			</g>
		</g>
		<g>
			<g>
				<circle fill="#F04C3A" cx="30.126" cy="46.767" r="1.795"/>
			</g>
		</g>
		<g>
			<g>
				<path fill="#F04C3A" d="M57.951,32.944l-0.539-0.539c-0.539-0.538-1.347-0.897-2.153-0.897c-0.809,0-1.616,0.359-2.155,0.897
					l-3.231,3.231v-9.514v-1.167c0-1.167-0.448-2.333-1.346-3.142l-4.219-4.218c-0.807-0.897-1.885-1.347-3.141-1.347H40H23.844
					c-1.526,0-2.692,1.167-2.692,2.693v32.312c0,1.525,1.166,2.692,2.692,2.692h0.897c0.538,0,0.897-0.359,0.897-0.897
					c0-0.539-0.359-0.897-0.897-0.897h-0.897c-0.538,0-0.897-0.359-0.897-0.897V18.943c0-0.539,0.359-0.897,0.897-0.897H40
					c0.986,0,1.795,0.808,1.795,1.795v1.795c0,1.526,1.167,2.693,2.692,2.693h1.795c0.988,0,1.795,0.808,1.795,1.795v10.77
					c0,0.18,0.091,0.27,0.091,0.448l-5.206,5.206c-0.09,0.091-0.18,0.27-0.27,0.449l-0.718,3.77H40
					c-0.539,0-0.897,0.359-0.897,0.898c0,0.537,0.358,0.897,0.897,0.897h2.692c0.09,0,0.09,0,0.18,0l4.487-0.897
					c0.18,0,0.359-0.091,0.449-0.27l10.143-10.143c0.538-0.539,0.897-1.347,0.897-2.154C58.849,34.291,58.489,33.483,57.951,32.944z
					 M46.282,22.533h-1.795c-0.538,0-0.897-0.359-0.897-0.897V19.84c0-0.179,0-0.359-0.089-0.628l3.32,3.32
					C46.642,22.533,46.462,22.533,46.282,22.533z M43.859,46.498l0.27-1.526l1.256,1.257L43.859,46.498z M56.694,35.996L47.18,45.51
					l-2.333-2.334l9.514-9.513c0.449-0.449,1.347-0.449,1.796,0l0.537,0.538c0.27,0.27,0.36,0.539,0.36,0.898
					C57.054,35.458,56.963,35.727,56.694,35.996z"/>
			</g>
		</g>
		<g>
			<g>
				<path fill="#F04C3A" d="M48.975,47.665c-0.538,0-0.897,0.358-0.897,0.897v2.692c0,0.538-0.358,0.897-0.897,0.897H35.512
					c-0.539,0-0.897,0.358-0.897,0.897c0,0.538,0.359,0.897,0.897,0.897H47.18c1.526,0,2.692-1.167,2.692-2.692v-2.693
					C49.872,48.023,49.514,47.665,48.975,47.665z"/>
			</g>
		</g>
		<g>
			<g>
				<path fill="#F04C3A" d="M34.614,27.021h-8.976c-0.538,0-0.897,0.359-0.897,0.897c0,0.538,0.359,0.897,0.897,0.897h8.976
					c0.539,0,0.897-0.359,0.897-0.897C35.512,27.38,35.153,27.021,34.614,27.021z"/>
			</g>
		</g>
		<g>
			<g>
				<path fill="#F04C3A" d="M43.59,30.611H32.819c-0.539,0-0.897,0.359-0.897,0.897c0,0.539,0.358,0.897,0.897,0.897H43.59
					c0.539,0,0.897-0.359,0.897-0.897C44.487,30.97,44.129,30.611,43.59,30.611z"/>
			</g>
		</g>
		<g>
			<g>
				<path fill="#F04C3A" d="M43.59,27.021h-5.386c-0.538,0-0.897,0.359-0.897,0.897c0,0.538,0.359,0.897,0.897,0.897h5.386
					c0.539,0,0.897-0.359,0.897-0.897C44.487,27.38,44.129,27.021,43.59,27.021z"/>
			</g>
		</g>
		<g>
			<g>
				<path fill="#F04C3A" d="M38.204,23.43h-5.385c-0.539,0-0.897,0.359-0.897,0.897c0,0.539,0.358,0.898,0.897,0.898h5.385
					c0.539,0,0.897-0.359,0.897-0.898C39.102,23.79,38.743,23.43,38.204,23.43z"/>
			</g>
		</g>
		<g>
			<g>
				<path fill="#F04C3A" d="M33.717,34.201h-8.078c-0.538,0-0.897,0.359-0.897,0.898s0.359,0.897,0.897,0.897h8.078
					c0.539,0,0.897-0.359,0.897-0.897S34.256,34.201,33.717,34.201z"/>
			</g>
		</g>
		<g>
			<g>
				<path fill="#F04C3A" d="M29.229,37.791h-3.59c-0.538,0-0.897,0.359-0.897,0.897c0,0.539,0.359,0.897,0.897,0.897h3.59
					c0.539,0,0.897-0.358,0.897-0.897C30.126,38.15,29.768,37.791,29.229,37.791z"/>
			</g>
		</g>
		<g>
			<g>
				<path fill="#F04C3A" d="M29.229,30.611h-3.59c-0.538,0-0.897,0.359-0.897,0.897c0,0.539,0.359,0.897,0.897,0.897h3.59
					c0.539,0,0.897-0.359,0.897-0.897C30.126,30.97,29.768,30.611,29.229,30.611z"/>
			</g>
		</g>
		<g>
			<g>
				<path fill="#F04C3A" d="M43.59,34.201h-6.283c-0.538,0-0.897,0.359-0.897,0.898s0.359,0.897,0.897,0.897h6.283
					c0.539,0,0.897-0.359,0.897-0.897S44.129,34.201,43.59,34.201z"/>
			</g>
		</g>
		<g>
			<g>
				<path fill="#F04C3A" d="M39.999,37.791h-7.18c-0.539,0-0.897,0.359-0.897,0.897c0,0.539,0.358,0.897,0.897,0.897h7.18
					c0.539,0,0.897-0.358,0.897-0.897C40.896,38.15,40.538,37.791,39.999,37.791z"/>
			</g>
		</g>
	</g>
</g>
</svg>
