<?xml version="1.0" encoding="UTF-8"?>
<svg width="261px" height="80px" viewBox="0 0 261 80" version="1.1" xmlns="http://www.w3.org/2000/svg" xmlns:xlink="http://www.w3.org/1999/xlink">
    <!-- Generator: Sketch 51.3 (57544) - http://www.bohemiancoding.com/sketch -->
    <title>Group 6</title>
    <desc>Created with Sketch.</desc>
    <defs></defs>
    <g id="Symbols" stroke="none" stroke-width="1" fill="none" fill-rule="evenodd">
        <g id="Rectangle" transform="translate(-171.000000, -31.000000)">
            <g id="Group-6" transform="translate(171.000000, 31.000000)">
                <g id="Group-3" transform="translate(0.000000, 0.287175)">
                    <polygon id="Clip-2" points="0.000525 0.338875 80.1339 0.338875 80.1339 46.438075 0.000525 46.438075"></polygon>
                    <path d="M69.647025,0.337825 C64.801275,0.337825 61.03965,4.09945 61.03965,9.04495 C61.03965,13.79095 64.30515,17.353075 68.75715,17.353075 C73.50315,17.353075 76.8684,13.893325 76.8684,9.142075 C76.8684,6.27295 75.878775,4.396075 73.50315,2.317075 C77.364525,4.690075 78.9474,7.561825 78.9474,11.61745 C78.9474,15.079825 77.5614,19.038325 73.8024,26.257075 C71.232525,31.10545 69.647025,34.074325 69.15615,35.161075 C68.75715,35.85145 68.261025,36.841075 67.667775,38.2297 L54.7134,5.976325 C54.21465,4.690075 54.017775,4.19395 54.017775,3.902575 C54.017775,2.910325 54.90765,2.511325 57.28065,2.317075 L59.2599,2.1202 L61.23915,1.9207 L61.23915,1.12795 C54.611025,1.424575 51.839025,1.524325 47.786025,1.524325 C43.727775,1.524325 40.9584,1.424575 34.230525,1.12795 L44.12415,27.343825 L39.17865,38.2297 L26.9094,5.8792 L26.413275,4.4932 C26.31615,4.2937 26.31615,4.2937 26.31615,3.902575 C26.31615,2.910325 27.6024,2.416825 31.5609,2.1202 L33.437775,1.9207 L33.437775,1.12795 C25.326525,1.424575 22.160775,1.424575 15.929025,1.424575 C9.697275,1.524325 7.02765,1.424575 0.000525,1.12795 L0.000525,2.02045 L1.780275,2.21995 C2.37615,2.21995 2.972025,2.317075 3.6624,2.317075 C4.6494,2.416825 5.3424,2.6137 5.838525,2.910325 C6.431775,3.304075 6.531525,3.40645 7.518525,5.976325 L22.853775,46.438075 L37.102275,46.438075 L44.620275,28.73245 L51.345525,46.438075 L65.49165,46.438075 C68.06415,39.613075 68.75715,38.032825 73.8024,28.73245 C78.55365,19.825825 80.1339,15.57595 80.1339,11.41795 C80.1339,5.582575 75.1884,0.337825 69.647025,0.337825 M68.954025,16.166575 C67.211025,16.166575 66.680775,14.4892 66.680775,8.8822 C66.680775,5.923825 66.80415,4.3987 67.15065,3.18595 C67.431525,2.15695 68.082525,1.566325 68.954025,1.566325 C70.634025,1.566325 71.101275,3.21745 71.101275,8.8822 C71.101275,14.54695 70.634025,16.166575 68.954025,16.166575" id="Fill-1" fill="#000000"></path>
                </g>
                <path d="M3.3222,75.4067875 L8.95545,75.4067875 L8.95545,73.8291625 L7.14945,73.8291625 L7.14945,62.7621625 L10.517325,62.7621625 L10.517325,64.9934125 L12.276075,64.9934125 L12.276075,61.1031625 L0.001575,61.1031625 L0.001575,64.9934125 L1.760325,64.9934125 L1.760325,62.7621625 L5.1282,62.7621625 L5.1282,73.8291625 L3.3222,73.8291625 L3.3222,75.4067875 Z M13.814325,75.4067875 L19.001325,75.4067875 L19.001325,73.8895375 L17.379075,73.8895375 L17.379075,70.6056625 C17.379075,68.4164125 18.7992,66.7127875 20.8047,66.7127875 C22.44795,66.7127875 22.75245,67.8494125 22.75245,69.2879125 L22.75245,75.4067875 L26.314575,75.4067875 L26.314575,73.8895375 L24.713325,73.8895375 L24.713325,68.8416625 C24.713325,66.2271625 23.60295,64.9120375 21.190575,64.9120375 C19.143075,64.9120375 17.80695,66.2691625 17.358075,67.2614125 L17.3187,67.2614125 C17.3187,67.2614125 17.379075,66.8965375 17.379075,66.4109125 L17.379075,61.1031625 L13.714575,61.1031625 L13.714575,62.6204125 L15.436575,62.6204125 L15.436575,73.8895375 L13.814325,73.8895375 L13.814325,75.4067875 Z M26.907825,70.2801625 C26.907825,73.3225375 29.112825,75.6509125 32.336325,75.6509125 C34.788075,75.6509125 36.326325,74.2334125 36.326325,74.2334125 L35.52045,72.7949125 C35.52045,72.7949125 34.242075,73.9499125 32.462325,73.9499125 C30.635325,73.9499125 29.03145,72.7345375 28.9107,70.4639125 L36.4077,70.4639125 C36.4077,70.4639125 36.468075,69.9782875 36.468075,69.7131625 C36.468075,67.0592875 34.950825,64.9120375 32.03445,64.9120375 C29.112825,64.9120375 26.907825,67.0172875 26.907825,70.2801625 Z M28.992075,69.2091625 C29.275575,67.4845375 30.493575,66.4712875 31.99245,66.4712875 C33.2892,66.4712875 34.383825,67.4031625 34.4442,69.2091625 L28.992075,69.2091625 Z M42.71295,62.6624125 L44.08845,62.6624125 L47.26995,75.4067875 L49.57995,75.4067875 L52.375575,65.2559125 C52.517325,64.7492875 52.559325,64.1219125 52.559325,64.1219125 L52.6407,64.1219125 C52.6407,64.1219125 52.680075,64.7492875 52.821825,65.2559125 L55.620075,75.4067875 L57.930075,75.4067875 L61.12995,62.6624125 L62.508075,62.6624125 L62.508075,61.1031625 L57.405075,61.1031625 L57.405075,62.6624125 L59.10345,62.6624125 L56.874825,72.0441625 C56.775075,72.5534125 56.733075,73.1204125 56.733075,73.1204125 L56.654325,73.1204125 C56.654325,73.1204125 56.591325,72.5534125 56.449575,72.0441625 L53.4702,61.1031625 L51.7482,61.1031625 L48.747825,72.0441625 C48.627075,72.5534125 48.548325,73.1204125 48.548325,73.1204125 L48.485325,73.1204125 C48.485325,73.1204125 48.42495,72.5534125 48.3252,72.0441625 L46.09395,62.6624125 L47.79495,62.6624125 L47.79495,61.1031625 L42.71295,61.1031625 L42.71295,62.6624125 Z M61.85445,70.2617875 C61.85445,73.3829125 64.324575,75.6509125 67.385325,75.6509125 C70.446075,75.6509125 72.9162,73.3829125 72.9162,70.2617875 C72.9162,67.1590375 70.446075,64.9120375 67.385325,64.9120375 C64.324575,64.9120375 61.85445,67.1590375 61.85445,70.2617875 Z M63.85995,70.2617875 C63.85995,68.1329125 65.4402,66.6130375 67.385325,66.6130375 C69.312075,66.6130375 70.913325,68.1329125 70.913325,70.2617875 C70.913325,72.4090375 69.312075,73.9499125 67.385325,73.9499125 C65.4402,73.9499125 63.85995,72.4090375 63.85995,70.2617875 Z M73.911075,75.4067875 L79.09545,75.4067875 L79.09545,73.8895375 L77.4732,73.8895375 L77.4732,70.7684125 C77.4732,68.7602875 78.6072,66.6944125 80.55495,66.6944125 C82.1352,66.6944125 82.33995,67.9307875 82.33995,69.2669125 L82.33995,75.4067875 L85.902075,75.4067875 L85.902075,73.8895375 L84.30345,73.8895375 L84.30345,70.6870375 C84.30345,68.6605375 85.398075,66.6944125 87.3222,66.6944125 C88.863075,66.6944125 89.1282,67.8284125 89.1282,69.2669125 L89.1282,75.4067875 L92.711325,75.4067875 L92.711325,73.8895375 L91.0917,73.8895375 L91.0917,68.8416625 C91.0917,66.2271625 90.018075,64.9120375 87.74745,64.9120375 C86.064825,64.9120375 84.6447,66.0460375 84.0777,67.3217875 L84.038325,67.3217875 C83.69445,65.6627875 82.6812,64.9120375 81.040575,64.9120375 C79.381575,64.9120375 77.89845,66.1877875 77.391825,67.4031625 L77.35245,67.4031625 C77.35245,67.4031625 77.41545,67.1406625 77.41545,66.8151625 L77.41545,66.2901625 C77.41545,65.5394125 76.987575,65.1561625 76.116075,65.1561625 L73.811325,65.1561625 L73.811325,66.6734125 L75.06345,66.6734125 C75.34695,66.6734125 75.5097,66.8151625 75.5097,67.0986625 L75.5097,73.8895375 L73.911075,73.8895375 L73.911075,75.4067875 Z M93.309825,70.2801625 C93.309825,73.3225375 95.51745,75.6509125 98.743575,75.6509125 C101.1927,75.6509125 102.73095,74.2334125 102.73095,74.2334125 L101.925075,72.7949125 C101.925075,72.7949125 100.6467,73.9499125 98.8617,73.9499125 C97.037325,73.9499125 95.436075,72.7345375 95.315325,70.4639125 L102.812325,70.4639125 C102.812325,70.4639125 102.8727,69.9782875 102.8727,69.7131625 C102.8727,67.0592875 101.35545,64.9120375 98.43645,64.9120375 C95.51745,64.9120375 93.309825,67.0172875 93.309825,70.2801625 Z M95.3967,69.2091625 C95.682825,67.4845375 96.895575,66.4712875 98.397075,66.4712875 C99.693825,66.4712875 100.78845,67.4031625 100.848825,69.2091625 L95.3967,69.2091625 Z M104.098575,75.4067875 L109.28295,75.4067875 L109.28295,73.8895375 L107.6607,73.8895375 L107.6607,70.6476625 C107.6607,68.6001625 109.02045,66.7127875 111.086325,66.7127875 C112.729575,66.7127875 113.013075,67.8494125 113.013075,69.2879125 L113.013075,75.4067875 L116.5962,75.4067875 L116.5962,73.8895375 L114.976575,73.8895375 L114.976575,68.8416625 C114.976575,66.2271625 113.92395,64.9120375 111.57195,64.9120375 C108.97845,64.9120375 107.78145,66.8571625 107.579325,67.4031625 L107.53995,67.4031625 C107.53995,67.4031625 107.60295,67.1406625 107.60295,66.8151625 L107.60295,66.2901625 C107.60295,65.5394125 107.196075,65.1561625 106.303575,65.1561625 L103.998825,65.1561625 L103.998825,66.6734125 L105.25095,66.6734125 C105.53445,66.6734125 105.6972,66.8151625 105.6972,67.1196625 L105.6972,73.8895375 L104.098575,73.8895375 L104.098575,75.4067875 Z M117.055575,65.2952875 L118.515075,65.2952875 L119.95095,60.8800375 L118.047825,60.8800375 L117.055575,65.2952875 Z M120.746325,73.1991625 C120.746325,74.8214125 122.89095,75.6509125 124.757325,75.6509125 C127.088325,75.6509125 128.8707,74.5772875 128.8707,72.6321625 C128.8707,70.7264125 127.06995,70.0596625 125.487075,69.5320375 C124.2507,69.1067875 123.114075,68.6999125 123.114075,67.7286625 C123.114075,66.8965375 123.9672,66.4922875 124.93845,66.4922875 C125.933325,66.4922875 126.747075,66.9175375 126.747075,67.5449125 L126.747075,68.2142875 L128.463825,68.2142875 L128.463825,66.9779125 C128.463825,65.4790375 126.358575,64.9120375 124.920075,64.9120375 C123.1377,64.9120375 121.1322,65.7231625 121.1322,67.7470375 C121.1322,69.6134125 122.814825,70.3011625 124.3347,70.8681625 C125.754825,71.3774125 126.8862,71.7002875 126.8862,72.7345375 C126.8862,73.5850375 125.975325,74.0522875 124.8177,74.0522875 C123.686325,74.0522875 122.4657,73.6454125 122.4657,72.7739125 L122.4657,72.1045375 L120.746325,72.1045375 L120.746325,73.1991625 Z M135.72195,68.1539125 C135.72195,72.3696625 138.9192,75.6509125 143.074575,75.6509125 C147.20895,75.6509125 150.429825,72.3696625 150.429825,68.1539125 C150.429825,64.0405375 147.20895,60.8616625 143.074575,60.8616625 C138.9192,60.8616625 135.72195,64.0405375 135.72195,68.1539125 Z M137.8062,68.1539125 C137.8062,65.0327875 140.155575,62.6414125 143.074575,62.6414125 C145.972575,62.6414125 148.324575,65.0327875 148.324575,68.1539125 C148.324575,71.3774125 145.972575,73.8501625 143.074575,73.8501625 C140.155575,73.8501625 137.8062,71.3774125 137.8062,68.1539125 Z M151.941825,75.4067875 L156.96345,75.4067875 L156.96345,73.8895375 L155.443575,73.8895375 L155.443575,71.1726625 C155.443575,69.1671625 156.378075,66.9569125 158.567325,66.9569125 C158.887575,66.9569125 159.1317,67.0172875 159.1317,67.0172875 L159.1317,65.0747875 C159.1317,65.0747875 158.887575,65.0354125 158.625075,65.0354125 C157.04745,65.0354125 155.85045,66.2087875 155.3832,67.7076625 L155.343825,67.7076625 C155.343825,67.7076625 155.3832,67.4031625 155.3832,66.9989125 L155.3832,66.3505375 C155.3832,65.5210375 154.960575,65.1561625 154.068075,65.1561625 L151.758075,65.1561625 L151.758075,66.6734125 L153.03645,66.6734125 C153.322575,66.6734125 153.480075,66.8151625 153.480075,67.1196625 L153.480075,73.8895375 L151.941825,73.8895375 L151.941825,75.4067875 Z M161.4312,77.3125375 L160.782825,78.8114125 C161.79345,79.3180375 163.05345,79.6619125 164.2872,79.6619125 C166.88595,79.6619125 169.4532,78.3677875 169.4532,74.9815375 L169.4532,67.0776625 C169.4532,66.8151625 169.63695,66.6734125 169.89945,66.6734125 L171.036075,66.6734125 L171.036075,65.1561625 L168.846825,65.1561625 C167.996325,65.1561625 167.67345,65.5394125 167.67345,66.1877875 C167.67345,66.4502875 167.712825,66.5920375 167.712825,66.5920375 L167.67345,66.5920375 C167.109075,65.4186625 165.68895,64.9120375 164.347575,64.9120375 C161.491575,64.9120375 159.85095,67.0986625 159.85095,70.0386625 C159.85095,72.9970375 161.591325,75.2860375 164.42895,75.2860375 C165.93045,75.2860375 166.9017,74.6376625 167.5107,73.6270375 L167.5527,73.6270375 C167.5527,73.6270375 167.4897,73.9499125 167.4897,74.2727875 L167.4897,75.0839125 C167.4897,77.1917875 166.0302,78.0029125 164.247825,78.0029125 C162.70695,78.0029125 161.4312,77.3125375 161.4312,77.3125375 Z M164.814825,73.5850375 C162.96945,73.5850375 161.85645,72.1255375 161.85645,69.9966625 C161.85645,67.9097875 162.8697,66.6130375 164.6337,66.6130375 C166.237575,66.6130375 167.534325,67.3821625 167.534325,70.0596625 C167.534325,72.7345375 166.237575,73.5850375 164.814825,73.5850375 Z M171.7212,72.5507875 C171.7212,74.6586625 173.4222,75.6509125 175.1232,75.6509125 C177.61695,75.6509125 178.50945,73.4826625 178.50945,73.4826625 L178.548825,73.4826625 C178.548825,73.4852875 178.470075,73.7477875 178.470075,74.1520375 L178.470075,74.2937875 C178.470075,74.9605375 178.832325,75.4067875 179.7432,75.4067875 L181.7907,75.4067875 L181.7907,73.8895375 L180.75645,73.8895375 C180.47295,73.8895375 180.3102,73.7477875 180.3102,73.4432875 L180.3102,68.8652875 C180.3102,66.2691625 178.9347,64.9120375 176.3202,64.9120375 C173.928825,64.9120375 172.42995,66.1274125 172.42995,66.1274125 L173.220075,67.5265375 C173.220075,67.5265375 174.537825,66.5316625 176.15745,66.5316625 C177.414825,66.5316625 178.3467,67.0986625 178.3467,68.7209125 L178.3467,69.1067875 L177.698325,69.1067875 C175.9947,69.1067875 171.7212,69.3299125 171.7212,72.5507875 Z M173.7057,72.3880375 C173.7057,70.4219125 176.9292,70.3825375 177.861075,70.3825375 L178.370325,70.3825375 L178.370325,70.8077875 C178.370325,72.3486625 177.294075,74.1336625 175.551075,74.1336625 C174.375075,74.1336625 173.7057,73.3015375 173.7057,72.3880375 Z M182.911575,75.4067875 L188.1012,75.4067875 L188.1012,73.8895375 L186.476325,73.8895375 L186.476325,70.6476625 C186.476325,68.6001625 187.83345,66.7127875 189.90195,66.7127875 C191.5452,66.7127875 191.831325,67.8494125 191.831325,69.2879125 L191.831325,75.4067875 L195.411825,75.4067875 L195.411825,73.8895375 L193.794825,73.8895375 L193.794825,68.8416625 C193.794825,66.2271625 192.739575,64.9120375 190.3902,64.9120375 C187.794075,64.9120375 186.597075,66.8571625 186.39495,67.4031625 L186.3582,67.4031625 C186.3582,67.4031625 186.41595,67.1406625 186.41595,66.8151625 L186.41595,66.2901625 C186.41595,65.5394125 186.0117,65.1561625 185.121825,65.1561625 L182.811825,65.1561625 L182.811825,66.6734125 L184.066575,66.6734125 C184.3527,66.6734125 184.512825,66.8151625 184.512825,67.1196625 L184.512825,73.8895375 L182.911575,73.8895375 L182.911575,75.4067875 Z M198.50145,63.1060375 L200.5647,63.1060375 L200.5647,61.1031625 L198.50145,61.1031625 L198.50145,63.1060375 Z M196.939575,75.4067875 L202.126575,75.4067875 L202.126575,73.8895375 L200.504325,73.8895375 L200.504325,65.1561625 L196.839825,65.1561625 L196.839825,66.6734125 L198.540825,66.6734125 L198.540825,73.8895375 L196.939575,73.8895375 L196.939575,75.4067875 Z M203.208075,73.1991625 C203.208075,74.8214125 205.3527,75.6509125 207.219075,75.6509125 C209.550075,75.6509125 211.329825,74.5772875 211.329825,72.6321625 C211.329825,70.7264125 209.529075,70.0596625 207.948825,69.5320375 C206.71245,69.1067875 205.575825,68.6999125 205.575825,67.7286625 C205.575825,66.8965375 206.42895,66.4922875 207.4002,66.4922875 C208.395075,66.4922875 209.2062,66.9175375 209.2062,67.5449125 L209.2062,68.2142875 L210.925575,68.2142875 L210.925575,66.9779125 C210.925575,65.4790375 208.820325,64.9120375 207.381825,64.9120375 C205.596825,64.9120375 203.59395,65.7231625 203.59395,67.7470375 C203.59395,69.6134125 205.276575,70.3011625 206.793825,70.8681625 C208.211325,71.3774125 209.34795,71.7002875 209.34795,72.7345375 C209.34795,73.5850375 208.43445,74.0522875 207.27945,74.0522875 C206.148075,74.0522875 204.92745,73.6454125 204.92745,72.7739125 L204.92745,72.1045375 L203.208075,72.1045375 L203.208075,73.1991625 Z M212.453325,72.5507875 C212.453325,74.6586625 214.154325,75.6509125 215.855325,75.6509125 C218.349075,75.6509125 219.241575,73.4826625 219.241575,73.4826625 L219.283575,73.4826625 C219.283575,73.4852875 219.2022,73.7477875 219.2022,74.1520375 L219.2022,74.2937875 C219.2022,74.9605375 219.56445,75.4067875 220.47795,75.4067875 L222.522825,75.4067875 L222.522825,73.8895375 L221.488575,73.8895375 C221.205075,73.8895375 221.042325,73.7477875 221.042325,73.4432875 L221.042325,68.8652875 C221.042325,66.2691625 219.666825,64.9120375 217.052325,64.9120375 C214.66095,64.9120375 213.162075,66.1274125 213.162075,66.1274125 L213.9522,67.5265375 C213.9522,67.5265375 215.267325,66.5316625 216.889575,66.5316625 C218.14695,66.5316625 219.078825,67.0986625 219.078825,68.7209125 L219.078825,69.1067875 L218.43045,69.1067875 C216.726825,69.1067875 212.453325,69.3299125 212.453325,72.5507875 Z M214.437825,72.3880375 C214.437825,70.4219125 217.661325,70.3825375 218.5932,70.3825375 L219.099825,70.3825375 L219.099825,70.8077875 C219.099825,72.3486625 218.0262,74.1336625 216.2832,74.1336625 C215.1072,74.1336625 214.437825,73.3015375 214.437825,72.3880375 Z M224.2317,71.6609125 C224.2317,75.0839125 226.843575,75.4881625 228.14295,75.4881625 C228.565575,75.4881625 228.849075,75.4461625 228.849075,75.4461625 L228.849075,73.8081625 C228.849075,73.8081625 228.66795,73.8291625 228.38445,73.8291625 C227.6127,73.8291625 226.1952,73.5640375 226.1952,71.4771625 L226.1952,66.6734125 L228.64695,66.6734125 L228.64695,65.1561625 L226.1952,65.1561625 L226.1952,62.3395375 L224.2737,62.3395375 L224.2737,65.1561625 L222.5097,65.1561625 L222.5097,66.6734125 L224.2317,66.6734125 L224.2317,71.6609125 Z M231.967575,63.1060375 L234.0282,63.1060375 L234.0282,61.1031625 L231.967575,61.1031625 L231.967575,63.1060375 Z M230.4057,75.4067875 L235.590075,75.4067875 L235.590075,73.8895375 L233.967825,73.8895375 L233.967825,65.1561625 L230.303325,65.1561625 L230.303325,66.6734125 L232.004325,66.6734125 L232.004325,73.8895375 L230.4057,73.8895375 L230.4057,75.4067875 Z M235.878825,70.2617875 C235.878825,73.3829125 238.34895,75.6509125 241.4097,75.6509125 C244.47045,75.6509125 246.940575,73.3829125 246.940575,70.2617875 C246.940575,67.1590375 244.47045,64.9120375 241.4097,64.9120375 C238.34895,64.9120375 235.878825,67.1590375 235.878825,70.2617875 Z M237.8817,70.2617875 C237.8817,68.1329125 239.464575,66.6130375 241.4097,66.6130375 C243.339075,66.6130375 244.9377,68.1329125 244.9377,70.2617875 C244.9377,72.4090375 243.339075,73.9499125 241.4097,73.9499125 C239.464575,73.9499125 237.8817,72.4090375 237.8817,70.2617875 Z M247.93545,75.4067875 L253.119825,75.4067875 L253.119825,73.8895375 L251.497575,73.8895375 L251.497575,70.6476625 C251.497575,68.6001625 252.857325,66.7127875 254.9232,66.7127875 C256.569075,66.7127875 256.84995,67.8494125 256.84995,69.2879125 L256.84995,75.4067875 L260.433075,75.4067875 L260.433075,73.8895375 L258.81345,73.8895375 L258.81345,68.8416625 C258.81345,66.2271625 257.760825,64.9120375 255.41145,64.9120375 C252.815325,64.9120375 251.618325,66.8571625 251.4162,67.4031625 L251.376825,67.4031625 C251.376825,67.4031625 251.439825,67.1406625 251.439825,66.8151625 L251.439825,66.2901625 C251.439825,65.5394125 251.03295,65.1561625 250.14045,65.1561625 L247.833075,65.1561625 L247.833075,66.6734125 L249.087825,66.6734125 C249.371325,66.6734125 249.534075,66.8151625 249.534075,67.1196625 L249.534075,73.8895375 L247.93545,73.8895375 L247.93545,75.4067875 Z" id="Fill-4" fill="#333333"></path>
            </g>
        </g>
    </g>
</svg>